{"asset":{"generator":"Khronos glTF Spline I/O v0.0.1","version":"2.0"},"scenes":[{"nodes":[0]}],"nodes":[{"name":"","children":[1,2,3,4,5]},{"name":"Cube","matrix":[-0.20601050692031717,-0.06417836022283155,0.976442936948977,0,0.9784473118463285,0.0009302590973849792,0.20649453396811468,0,-0.014160825510225648,0.9979380104481095,0.06260350089051536,0,-23.01995482780153,58.28903952813503,-19.475069710128423,1],"mesh":0},{"name":"Camera","camera":0,"translation":[10.235298679631242,182.25229497494507,911.7622351848258],"rotation":[0.025225792385988238,0.005312071235781382,-0.00013404575537713517,0.9996676564385887]},{"name":"Icosahedron","matrix":[-0.6704215585935028,0.566623586238245,0.47903303152449234,0,0.5846442609046294,0.005883516422471325,0.8112684342594566,0,0.4568654309141043,0.8239557607984866,-0.3352176640373572,0,-94.48932355900021,238.8869700172189,-63.84851833849762,1],"mesh":1},{"name":"Directional Light","translation":[-186.39967933225597,300,300],"rotation":[-0.4037735035897231,-0.11522371760989042,0.24904967780864554,0.8727340434991899],"extensions":{"KHR_lights_punctual":{"light":0}}},{"name":"Personal Camera","camera":1,"translation":[861.2379095844957,972.8458110147778,779.8031139726138],"rotation":[-0.23827007602965009,0.4006030767883451,0.10871197009837434,0.87802406191053]}],"cameras":[{"type":"perspective","perspective":{"aspectRatio":1.702127659574468,"yfov":0.7853981633974483,"znear":5,"zfar":500000}},{"type":"perspective","perspective":{"aspectRatio":1.702127659574468,"yfov":0.7853981633974483,"znear":5,"zfar":500000}}],"meshes":[{"primitives":[{"attributes":{"POSITION":1,"NORMAL":2,"TEXCOORD_0":3},"indices":0}]},{"primitives":[{"attributes":{"POSITION":4,"NORMAL":5,"TEXCOORD_0":6}}]}],"buffers":[{"uri":"data:application/octet-stream;base64,","byteLength":840},{"uri":"data:application/octet-stream;base64,","byteLength":1920}],"bufferViews":[{"buffer":0,"byteOffset":0,"byteLength":72,"target":34963},{"buffer":0,"byteOffset":72,"byteLength":288,"target":34962},{"buffer":0,"byteOffset":360,"byteLength":288,"target":34962},{"buffer":0,"byteOffset":648,"byteLength":192,"target":34962},{"buffer":1,"byteOffset":0,"byteLength":720,"target":34962},{"buffer":1,"byteOffset":720,"byteLength":720,"target":34962},{"buffer":1,"byteOffset":1440,"byteLength":480,"target":34962}],"accessors":[{"bufferView":0,"byteOffset":0,"componentType":5123,"count":36,"type":"SCALAR","min":[0],"max":[23]},{"bufferView":1,"byteOffset":0,"componentType":5126,"count":24,"type":"VEC3","min":[-67.5,-102.43529510498047,-77.47412109375],"max":[67.5,102.43529510498047,77.47412109375]},{"bufferView":2,"byteOffset":0,"componentType":5126,"count":24,"type":"VEC3","min":[-1,-1,-1],"max":[1,1,1]},{"bufferView":3,"byteOffset":0,"componentType":5126,"count":24,"type":"VEC2","min":[0,0],"max":[1,1]},{"bufferView":4,"byteOffset":0,"componentType":5126,"count":60,"type":"VEC3","min":[-65.50011444091797,-65.50011444091797,-65.50011444091797],"max":[65.50011444091797,65.50011444091797,65.50011444091797]},{"bufferView":5,"byteOffset":0,"componentType":5126,"count":60,"type":"VEC3","min":[-0.9341723322868347,-0.9341723322868347,-0.9341723322868347],"max":[0.9341723322868347,0.9341723322868347,0.9341723322868347]},{"bufferView":6,"byteOffset":0,"componentType":5126,"count":60,"type":"VEC2","min":[0,0.17620819807052612],"max":[1.0881041288375854,0.8237918019294739]}],"extensions":{"KHR_lights_punctual":{"lights":[{"type":"directional","name":"Directional Light","color":[1,1,1],"intensity":0.7}]}},"extensionsUsed":["KHR_lights_punctual"]}